<svg width="60" height="60" viewBox="0 0 60 60" fill="none" xmlns="http://www.w3.org/2000/svg">
<g opacity="0.38">
<path d="M22.5 10H37.5M35 20C35.6631 20 36.2989 20.2634 36.7678 20.7322C37.2366 21.2011 37.5 21.837 37.5 22.5V27.5C37.5 28.163 37.7634 28.7989 38.2323 29.2678C38.7011 29.7366 39.337 30 40 30H48.2325C48.5821 29.9999 48.924 30.1035 49.2147 30.2978C49.5054 30.492 49.732 30.768 49.8658 31.0911C49.9996 31.4141 50.0346 31.7695 49.9664 32.1124C49.8982 32.4553 49.7298 32.7703 49.4825 33.0175L32.135 50.365C31.8548 50.6456 31.522 50.8682 31.1556 51.0201C30.7893 51.1719 30.3966 51.2501 30 51.2501C29.6034 51.2501 29.2108 51.1719 28.8444 51.0201C28.4781 50.8682 28.1453 50.6456 27.865 50.365L10.515 33.015C10.2686 32.7677 10.101 32.4529 10.0332 32.1104C9.96548 31.768 10.0007 31.4131 10.1344 31.0906C10.2681 30.7681 10.4943 30.4924 10.7845 30.2983C11.0747 30.1042 11.4159 30.0004 11.765 30H20C20.6631 30 21.2989 29.7366 21.7678 29.2678C22.2366 28.7989 22.5 28.163 22.5 27.5V22.5C22.5 21.837 22.7634 21.2011 23.2323 20.7322C23.7011 20.2634 24.337 20 25 20H35Z" stroke="#6B7280" stroke-width="5" stroke-linecap="round" stroke-linejoin="round"/>
</g>
</svg>
