<svg width="15" height="15" viewBox="0 0 15 15" fill="none" xmlns="http://www.w3.org/2000/svg">
<path d="M7.24989 11.0001V2.87508M7.24989 11.0001C7.25026 11.3418 7.32067 11.6798 7.45679 11.9932C7.59291 12.3067 7.79184 12.5889 8.04129 12.8224C8.29075 13.056 8.58543 13.2359 8.90715 13.3511C9.22887 13.4663 9.57078 13.5143 9.91178 13.4922C10.2528 13.47 10.5856 13.3782 10.8898 13.2224C11.1939 13.0666 11.4628 12.8501 11.68 12.5863C11.8972 12.3225 12.058 12.0169 12.1525 11.6885C12.2469 11.3601 12.2731 11.0159 12.2293 10.677M7.24989 11.0001C7.24953 11.3418 7.17911 11.6798 7.04299 11.9932C6.90688 12.3067 6.70795 12.5889 6.45849 12.8224C6.20903 13.056 5.91435 13.2359 5.59263 13.3511C5.27092 13.4663 4.929 13.5143 4.588 13.4922C4.247 13.47 3.91416 13.3782 3.61003 13.2224C3.3059 13.0666 3.03694 12.8501 2.81976 12.5863C2.60258 12.3225 2.44179 12.0169 2.34732 11.6885C2.25285 11.3601 2.22671 11.0159 2.27052 10.677M7.24989 2.87508C7.24988 2.58747 7.31603 2.30372 7.44323 2.04576C7.57043 1.78781 7.75526 1.56258 7.98343 1.38749C8.21161 1.2124 8.477 1.09214 8.75908 1.03603C9.04116 0.979919 9.33237 0.989451 9.61018 1.06389C9.88799 1.13833 10.145 1.27568 10.3612 1.46532C10.5774 1.65496 10.7471 1.8918 10.8572 2.15752C10.9672 2.42323 11.0147 2.71071 10.9959 2.9977C10.977 3.2847 10.8925 3.56351 10.7486 3.81258M7.24989 2.87508C7.2499 2.58747 7.18375 2.30372 7.05655 2.04576C6.92936 1.78781 6.74452 1.56258 6.51635 1.38749C6.28818 1.2124 6.02278 1.09214 5.7407 1.03603C5.45862 0.979919 5.16741 0.989451 4.8896 1.06389C4.61179 1.13833 4.35483 1.27568 4.1386 1.46532C3.92236 1.65496 3.75265 1.8918 3.6426 2.15752C3.53254 2.42323 3.48509 2.71071 3.50391 2.9977C3.52273 3.2847 3.60732 3.56351 3.75114 3.81258M9.12489 7.87508C8.58414 7.71701 8.10917 7.38797 7.77114 6.93727C7.43311 6.48657 7.25023 5.93846 7.24989 5.37508C7.24955 5.93846 7.06667 6.48657 6.72864 6.93727C6.39061 7.38797 5.91564 7.71701 5.37489 7.87508M10.998 2.95321C11.3654 3.04767 11.7065 3.22449 11.9954 3.47028C12.2843 3.71607 12.5135 4.02438 12.6656 4.37186C12.8177 4.71935 12.8888 5.09689 12.8734 5.4759C12.858 5.85491 12.7566 6.22545 12.5768 6.55946M10.9999 11.0001C11.5502 11.0001 12.0851 10.8185 12.5217 10.4834C12.9583 10.1484 13.2722 9.6787 13.4146 9.14714C13.557 8.61558 13.5201 8.05187 13.3095 7.54344C13.0989 7.03501 12.7265 6.61026 12.2499 6.33508M3.49989 11.0001C2.94958 11.0001 2.41464 10.8185 1.97806 10.4834C1.54147 10.1484 1.22762 9.6787 1.08519 9.14714C0.942755 8.61558 0.979693 8.05187 1.19028 7.54344C1.40086 7.03501 1.77332 6.61026 2.24989 6.33508M3.50177 2.95321C3.13439 3.04767 2.79333 3.22449 2.50441 3.47028C2.21549 3.71607 1.98629 4.02438 1.83417 4.37186C1.68205 4.71935 1.61099 5.09689 1.62638 5.4759C1.64178 5.85491 1.74322 6.22545 1.92302 6.55946" stroke="#6366F1" stroke-width="2" stroke-linecap="round" stroke-linejoin="round"/>
</svg>
