<svg width="15" height="13" viewBox="0 0 15 13" fill="none" xmlns="http://www.w3.org/2000/svg">
<path d="M2.25 11.625H12.25C12.5815 11.625 12.8995 11.4933 13.1339 11.2589C13.3683 11.0245 13.5 10.7065 13.5 10.375V4.125C13.5 3.79348 13.3683 3.47554 13.1339 3.24112C12.8995 3.0067 12.5815 2.875 12.25 2.875H7.29375C7.08787 2.87393 6.88543 2.82203 6.70444 2.7239C6.52344 2.62577 6.36948 2.48445 6.25625 2.3125L5.74375 1.5625C5.63052 1.39055 5.47656 1.24923 5.29556 1.1511C5.11457 1.05297 4.91213 1.00107 4.70625 1H2.25C1.91848 1 1.60054 1.1317 1.36612 1.36612C1.1317 1.60054 1 1.91848 1 2.25V10.375C1 11.0625 1.5625 11.625 2.25 11.625Z" stroke="#6366F1" stroke-width="2" stroke-linecap="round" stroke-linejoin="round"/>
<path d="M7.25 7.875C7.59518 7.875 7.875 7.59518 7.875 7.25C7.875 6.90482 7.59518 6.625 7.25 6.625C6.90482 6.625 6.625 6.90482 6.625 7.25C6.625 7.59518 6.90482 7.875 7.25 7.875Z" stroke="#6366F1" stroke-width="2" stroke-linecap="round" stroke-linejoin="round"/>
</svg>
