<svg width="17" height="17" viewBox="0 0 17 17" fill="none" xmlns="http://www.w3.org/2000/svg">
<path d="M8.30769 11.0001V14.8462C8.30769 14.8462 10.6385 14.4231 11.3846 13.3077C12.2154 12.0616 11.3846 9.46162 11.3846 9.46162M8.30769 11.0001C9.38209 10.5912 10.4129 10.0758 11.3846 9.46162M8.30769 11.0001L6 8.6924M6 8.6924C6.40934 7.63044 6.92477 6.61248 7.53846 5.65398C8.43476 4.22091 9.68279 3.04097 11.1638 2.2264C12.6449 1.41183 14.3097 0.989707 16 1.00019C16 3.09247 15.4 6.76935 11.3846 9.46162M6 8.6924H2.15385C2.15385 8.6924 2.57692 6.36166 3.69231 5.61552C4.93846 4.78476 7.53846 5.65398 7.53846 5.65398M2.53846 12.1539C1.38462 13.1231 1 16 1 16C1 16 3.87692 15.6154 4.84615 14.4616C5.39231 13.8154 5.38462 12.8231 4.77692 12.2231C4.47793 11.9378 4.08407 11.7729 3.67094 11.7601C3.25781 11.7473 2.85452 11.8875 2.53846 12.1539Z" stroke="#6366F1" stroke-width="2" stroke-linecap="round" stroke-linejoin="round"/>
</svg>
