<?xml version="1.0" encoding="utf-8"?><!--Generator: Adobe Illustrator 27.9.0, SVG Export Plug-In . SVG Version: 6.00 Build 0)--><svg version="1.1" id="Layer_1" xmlns="http://www.w3.org/2000/svg" xmlns:xlink="http://www.w3.org/1999/xlink" x="0px" y="0px" viewBox="0 0 500 121" style="enable-background:new 0 0 500 121;" xml:space="preserve"><style type="text/css">.st0{fill:url(#SVGID_1_);}</style><g><g><linearGradient id="SVGID_1_" gradientUnits="userSpaceOnUse" x1="41.4528" y1="16.6311" x2="94.5168" y2="108.5406" gradientTransform="matrix(1 0 0 -1 0 121)"><stop offset="0" style="stop-color:#410073"/><stop offset="0.33" style="stop-color:#7F00C5"/><stop offset="0.66" style="stop-color:#FF09BE"/><stop offset="1" style="stop-color:#E5D4DE"/></linearGradient><path class="st0" d="M36.4,101.27L36.4,101.27c-2.63-0.84-5.75-3.96-6.75-6.77c-7.78-22.67-7.78-45.34,0-68.01
			c1-2.81,4.12-5.93,6.75-6.77l0,0c2.64-0.84,4.16,1.11,3.49,4.17c-5.56,24.4-5.56,48.8,0,73.2
			C40.56,100.16,39.04,102.12,36.4,101.27z M59.74,79.42c-0.26-12.61-0.26-25.23,0-37.84c0.05-3.27-2.4-5.89-5.48-5.73l0,0
			c-3.07,0.16-5.83,2.97-6.04,6.15c-0.78,12.33-0.78,24.67,0,37c0.22,3.18,2.97,5.99,6.04,6.15l0,0
			C57.34,85.31,59.79,82.68,59.74,79.42z M12.15,65.98c-0.32-3.66-0.32-7.31,0-10.97c0.21-2.57-2.06-4.37-5.28-3.94l0,0
			c-3.21,0.43-6.3,2.58-6.57,4.72c-0.39,3.14-0.39,6.28,0,9.42c0.28,2.14,3.36,4.29,6.57,4.72l0,0
			C10.08,70.35,12.36,68.56,12.15,65.98z M128.87,73.14c2.85-8.43,2.85-16.86,0-25.3c-0.75-2.14-4.1-4.62-7.17-5.41l0,0
			c-3.08-0.79-4.94,0.75-4.35,3.32c2.33,9.83,2.33,19.65,0,29.48c-0.58,2.57,1.27,4.11,4.35,3.32l0,0
			C124.77,77.77,128.12,75.29,128.87,73.14z M100.27,97.51c9.22-24.68,9.22-49.35,0-74.03c-1.09-2.81-4.2-5.99-6.73-6.9l0,0
			c-2.54-0.91-3.93,1-3.2,4.07c6.59,26.56,6.59,53.13,0,79.69c-0.72,3.06,0.66,4.98,3.2,4.07l0,0
			C96.08,103.5,99.18,100.32,100.27,97.51z M78.52,113.84c6.46-35.56,6.46-71.13,0-106.69c-0.62-3.18-2.94-6.27-5.08-6.64l0,0
			c-2.14-0.38-3.75,2.17-3.6,5.44c2.15,36.37,2.15,72.73,0,109.1c-0.15,3.27,1.46,5.81,3.6,5.44l0,0
			C75.58,120.11,77.91,117.02,78.52,113.84z"/></g><g><path d="M164.05,43.78h-16.39v-10.1h43.93v10.09h-16.48v44.82h-11.06L164.05,43.78L164.05,43.78z"/><path d="M186.98,78.59c0-7.11,5.89-10.74,11.55-12.36l13.08-3.71v-0.16c0-4.85-2.26-7.03-6.46-7.03c-4.12,0-6.7,2.1-6.86,6.46
			h-11.14c0.81-9.37,8.24-14.38,18.33-14.38c11.23,0,17.2,5.73,17.2,16.07V88.6H212.1l-0.08-6.94c-2.66,4.76-6.46,7.75-12.76,7.75
			C191.1,89.41,186.98,84.48,186.98,78.59z M203.78,81.82c4.93,0,7.83-3.39,7.83-8.56v-3.8l-8.4,2.42
			c-3.55,1.05-5.17,2.75-5.17,5.33C198.05,80.2,200.31,81.82,203.78,81.82z"/><path d="M230.43,31.58h11.06v48.54h4.04v8.48h-15.1L230.43,31.58L230.43,31.58z"/><path d="M262.33,70.35V88.6h-11.06V31.58h11.06v33.68l13.16-17.04h13.24l-16.07,19.22l16.47,21.16h-13.97L262.33,70.35z"/><path d="M294.55,33.68h19.06l15.34,38.44l3.55,9.37l0.32-0.08l-0.24-10.01V33.68h10.34V88.6h-19.06l-15.34-38.52l-3.55-9.37
			l-0.32,0.08l0.24,10.01v37.79h-10.34V33.68z"/><path d="M349.95,68.41c0-13.57,8.48-21,20.19-21c11.63,0,20.11,7.43,20.11,21s-8.48,21-20.11,21
			C358.43,89.41,349.95,81.98,349.95,68.41z M370.14,81.01c5.41,0,8.72-4.12,8.72-11.63v-1.94c0-7.51-3.31-11.63-8.72-11.63
			s-8.72,4.12-8.72,11.63v1.94C361.42,76.89,364.73,81.01,370.14,81.01z"/><path d="M397.68,77.46V57.19h-5.33v-8.96h5.33v-9.21l11.06-1.7v10.9h7.51v8.96h-7.51v18.25c0,3.63,0.73,4.2,3.88,4.2h3.63v8.96
			h-7.67C400.66,88.6,397.68,84.56,397.68,77.46z"/><path d="M420.69,68.41c0-13.57,8.4-21,19.95-21c11.47,0,18.98,7.35,18.98,20.35v3.31h-27.46v0.4c0,5.98,3.15,10.01,8.88,10.01
			c4.28,0,6.78-2.18,7.51-5.01h10.5c-1.37,7.59-8.08,12.92-18.09,12.92C429.17,89.41,420.69,81.98,420.69,68.41z M448.47,64.21
			c0-5.33-2.75-8.88-8-8.88c-5.09,0-7.99,3.39-8.32,8.88H448.47z"/><path d="M465.27,60.25c0-7.91,6.54-12.84,17.04-12.84c12.44,0,17.44,7.03,17.69,13.97h-10.74c-0.08-3.63-2.26-6.3-7.11-6.3
			c-3.88,0-5.98,1.62-5.98,4.04c0,2.26,1.94,3.39,4.6,4.04l6.7,1.62c6.54,1.53,12.36,4.44,12.36,11.79
			c0,7.91-6.62,12.84-17.12,12.84c-12.6,0-17.61-6.94-17.93-13.97h10.82c0.08,3.47,2.26,6.3,7.27,6.3c3.88,0,5.98-1.61,5.98-4.04
			c0-2.26-1.94-3.39-4.6-4.04l-6.7-1.61C471,70.43,465.27,67.6,465.27,60.25z"/></g></g></svg>