<svg width="7" height="10" viewBox="0 0 7 10" fill="none" xmlns="http://www.w3.org/2000/svg">
<path d="M5.16667 4.25H1.08333C0.761167 4.25 0.5 4.6231 0.5 5.08333V8C0.5 8.46024 0.761167 8.83333 1.08333 8.83333H5.16667C5.48883 8.83333 5.75 8.46024 5.75 8V5.08333C5.75 4.6231 5.48883 4.25 5.16667 4.25Z" fill="#4ADE80"/>
<path d="M1.66667 4.25V2.58333C1.66667 2.0308 1.82031 1.50089 2.0938 1.11019C2.36729 0.719493 2.73823 0.5 3.125 0.5C3.51177 0.5 3.88271 0.719493 4.1562 1.11019C4.42969 1.50089 4.58333 2.0308 4.58333 2.58333V4.25M1.08333 4.25H5.16667C5.48883 4.25 5.75 4.6231 5.75 5.08333V8C5.75 8.46024 5.48883 8.83333 5.16667 8.83333H1.08333C0.761167 8.83333 0.5 8.46024 0.5 8V5.08333C0.5 4.6231 0.761167 4.25 1.08333 4.25Z" stroke="#4ADE80" stroke-linecap="round" stroke-linejoin="round"/>
</svg>
