<svg width="15" height="17" viewBox="0 0 15 17" fill="none" xmlns="http://www.w3.org/2000/svg">
<path d="M11.5182 2.612C10.9072 1.91162 10.54 0.998375 10.54 0H9.77441C9.97158 1.09125 10.6212 2.02772 11.5182 2.612Z" fill="#4B5563"/>
<path d="M4.43485 8.25377C3.10866 8.25377 2.02994 9.33343 2.02994 10.6607C2.02994 11.5856 2.55577 12.3904 3.32131 12.7929C3.0352 12.3982 2.86508 11.9145 2.86508 11.3882C2.86508 10.0609 3.9438 8.98127 5.27001 8.98127C5.51745 8.98127 5.75715 9.02377 5.98143 9.09343V6.16803C5.7494 6.13704 5.51358 6.11768 5.27001 6.11768C5.22746 6.11768 5.1888 6.12155 5.14626 6.12155V8.36593C4.91815 8.29627 4.68229 8.25377 4.43485 8.25377Z" fill="#4B5563"/>
<path d="M13.6871 3.89697V6.12202C12.2024 6.12202 10.826 5.64608 9.70467 4.84116V10.665C9.70467 13.5712 7.34233 15.9394 4.43477 15.9394C3.31351 15.9394 2.26958 15.5834 1.4151 14.9836C2.37783 16.0167 3.75041 16.6669 5.26993 16.6669C8.17358 16.6669 10.5398 14.3025 10.5398 11.3925V5.56866C11.6611 6.37358 13.0375 6.84949 14.5223 6.84949V3.98601C14.2323 3.98601 13.9538 3.95502 13.6871 3.89697Z" fill="#4B5563"/>
<path d="M9.70467 10.6648V4.84093C10.826 5.64584 12.2024 6.12178 13.6871 6.12178V3.89673C12.8288 3.7149 12.0749 3.25052 11.5182 2.612C10.6212 2.02772 9.97533 1.09125 9.77042 0H7.67483L7.67092 11.4812C7.62458 12.766 6.56517 13.7992 5.26994 13.7992C4.4657 13.7992 3.75814 13.4007 3.31738 12.797C2.55183 12.3907 2.026 11.5897 2.026 10.6648C2.026 9.3375 3.10472 8.25783 4.4309 8.25783C4.67835 8.25783 4.91807 8.30042 5.14232 8.37008V6.12566C2.29665 6.18757 0 8.52483 0 11.3923C0 12.7776 0.537433 14.0392 1.4151 14.9833C2.26958 15.5832 3.31351 15.9392 4.43477 15.9392C7.33842 15.9392 9.70467 13.5709 9.70467 10.6648Z" fill="#4B5563"/>
</svg>
