<svg width="20" height="16" viewBox="0 0 20 16" fill="none" xmlns="http://www.w3.org/2000/svg">
<path fill-rule="evenodd" clip-rule="evenodd" d="M6.29 15.9998C13.837 15.9998 17.965 9.84336 17.965 4.50517C17.965 4.32992 17.965 4.15599 17.953 3.98271C18.756 3.41167 19.449 2.70266 20 1.8914C19.252 2.21827 18.457 2.43263 17.644 2.52714C18.5 2.02207 19.141 1.22858 19.448 0.292275C18.642 0.762885 17.761 1.09502 16.842 1.27323C15.288 -0.353238 12.689 -0.432041 11.036 1.09794C9.971 2.08445 9.518 3.55532 9.849 4.95829C6.55 4.79486 3.476 3.26097 1.392 0.737588C0.303 2.5836 0.86 4.94429 2.663 6.12968C2.01 6.11097 1.371 5.93788 0.8 5.6248V5.67606C0.801 7.59889 2.178 9.25453 4.092 9.63554C3.488 9.79799 2.854 9.82155 2.24 9.70439C2.777 11.3505 4.318 12.478 6.073 12.5105C4.62 13.6349 2.825 14.2454 0.977 14.2434C0.651 14.2425 0.325 14.2237 0 14.1853C1.877 15.3707 4.06 15.9998 6.29 15.9969" fill="#4B5563"/>
</svg>
