<svg width="14" height="10" viewBox="0 0 14 10" fill="none" xmlns="http://www.w3.org/2000/svg">
<path d="M13.0587 1.46953C12.9846 1.18393 12.836 0.923122 12.6281 0.713755C12.4202 0.504389 12.1604 0.353964 11.8753 0.277856C10.147 0.0740138 8.40725 -0.0178444 6.667 0.00285557C4.92678 -0.0178444 3.18704 0.0740138 1.45867 0.277856C1.17361 0.353964 0.913848 0.504389 0.705948 0.713755C0.49804 0.923122 0.349448 1.18393 0.27534 1.46953C0.0860151 2.53115 -0.00603484 3.60785 0.000340163 4.68618C-0.0063515 5.7701 0.0856984 6.85235 0.27534 7.91951C0.35329 8.20051 0.50359 8.4561 0.71124 8.66085C0.918882 8.8656 1.17661 9.01227 1.45867 9.08618C3.18704 9.29002 4.92678 9.38193 6.667 9.36118C8.40725 9.38193 10.147 9.29002 11.8753 9.08618C12.1574 9.01227 12.4152 8.8656 12.6227 8.66085C12.8304 8.4561 12.9807 8.20051 13.0587 7.91951C13.2483 6.85235 13.3403 5.7701 13.3337 4.68618C13.3401 3.60785 13.248 2.53115 13.0587 1.46953ZM5.30033 6.67785V2.71119L8.792 4.68618L5.30033 6.66951V6.67785Z" fill="#4B5563"/>
</svg>
